<svg width="181" height="90" viewBox="0 0 181 90" fill="none" xmlns="http://www.w3.org/2000/svg">
<g opacity="0.63">
<path d="M40.265 17.0011C38.6266 17.0011 37.4847 15.4963 36.8393 12.4867C34.4561 12.4867 31.8413 13.6073 28.9948 15.8485C27.224 17.2572 26.0324 18.5539 25.4201 19.7385C24.8078 20.9232 24.4768 21.8517 24.4271 22.524C24.394 23.1964 24.5678 23.7727 24.9484 24.2529C25.3291 24.7012 25.8587 25.1334 26.5372 25.5496C27.2323 25.9658 28.0349 26.3821 28.9451 26.7983C33.7114 28.9434 36.7317 30.4322 38.006 31.2647C40.5381 32.8975 42.433 34.6905 43.6908 36.6435C44.8824 38.5966 45.4781 41.254 45.4781 44.6158C45.4781 47.4013 45.0313 49.7545 44.1376 51.6756C43.2605 53.5966 42.0938 55.3095 40.6374 56.8143C39.181 58.3191 37.5509 59.6638 35.747 60.8485C33.9597 62.0011 32.0647 62.9936 30.0622 63.826C28.0763 64.6585 26.1152 65.3469 24.1789 65.8911C20.389 66.9157 17.1536 67.428 14.4726 67.428C9.59046 67.428 5.82544 66.2914 3.17751 64.0181C2.18454 63.1537 1.37361 60.9925 0.744729 57.5347C0.248243 54.6852 0 52.3479 0 50.5229C0 48.666 0.0827477 47.6414 0.248243 47.4493C0.413739 47.2572 0.753004 47.2572 1.26604 47.4493C1.77908 47.6094 2.44933 47.8975 3.27681 48.3138L6.25573 49.8506C10.873 52.0918 15.7552 53.2124 20.9021 53.2124C24.6919 53.2124 27.9025 52.556 30.5339 51.2433C32.0896 50.4429 32.917 49.5464 33.0163 48.5539C33.0825 47.6894 31.8579 46.6169 29.3423 45.3362C28.2004 44.7279 26.8765 44.0875 25.3704 43.4152C18.0721 39.9893 13.6699 37.7801 12.1639 36.7876C10.6579 35.7951 9.67321 34.9146 9.20982 34.1462C8.76298 33.3778 8.39062 32.5294 8.09273 31.6009C7.54659 29.7759 7.27352 28.047 7.27352 26.4141C7.27352 24.7492 7.3149 23.4685 7.39764 22.572C7.49694 21.6756 7.62934 20.8431 7.79483 20.0747C8.14237 18.5059 8.58094 17.4333 9.11052 16.857C13.3638 12.2465 19.6112 8.19637 27.8529 4.70651C35.1843 1.56884 41.2166 0 45.9498 0C46.9097 0 47.6296 0.320171 48.1095 0.960512C48.937 2.14514 49.3011 3.40982 49.2018 4.75454C49.1025 6.09925 48.8873 7.34792 48.5564 8.50053C48.2419 9.62113 47.8447 10.6457 47.3648 11.5742C46.8849 12.4707 46.347 13.2711 45.7512 13.9755C45.172 14.6478 44.5679 15.2081 43.939 15.6563C42.6813 16.5528 41.4566 17.0011 40.265 17.0011Z" fill="#23242A"/>
<path d="M57.4325 53.3084C57.9787 52.8602 58.74 52.1558 59.7164 51.1953C65.6908 45.2721 68.9676 42.0064 69.5468 41.3981L70.5894 40.2935C71.6651 38.9488 72.1616 37.8922 72.0789 37.1238C71.8968 35.4909 71.4417 34.8346 70.7135 35.1547C69.9854 35.4429 69.2241 35.8431 68.4297 36.3554C67.6519 36.8677 66.8244 37.492 65.9473 38.2284C64.1103 39.7012 62.4967 41.174 61.1065 42.6467C56.241 48.0576 53.3117 51.3394 52.3187 52.492C51.6071 55.5976 50.9699 58.6873 50.4073 61.7609L47.4035 78.1857C46.4602 83.2764 45.5086 86.7182 44.5487 88.5112C44.0357 89.5037 43.4647 90 42.8358 90C41.2802 90 40.0555 88.9434 39.1618 86.8303C38.2682 84.7492 37.8213 82.0918 37.8213 78.8581C37.8213 75.6564 38.0365 72.4867 38.4668 69.349C38.897 66.2433 39.4928 63.0897 40.2541 59.8879C41.7932 53.4205 43.8536 47.3853 46.4354 41.7823C48.0076 33.6179 50.6224 25.6937 54.2798 18.0096C56.514 13.3351 58.591 10.0374 60.5107 8.11633C61.4706 7.15582 62.2898 6.67556 62.9684 6.67556C63.6469 6.67556 64.1599 6.97972 64.5075 7.58805C64.855 8.16435 65.0288 8.90075 65.0288 9.79722C65.0288 10.6617 64.8881 11.7663 64.6068 13.111C64.3254 14.4557 63.9448 15.9605 63.4648 17.6254C62.9849 19.2903 62.4222 21.0672 61.7768 22.9562L59.7164 28.7673C59.5509 29.2476 59.4681 29.6798 59.4681 30.064C59.4681 30.6724 59.6584 30.9765 60.0391 30.9765C60.4694 30.9765 61.2638 30.4482 62.4222 29.3917L66.3941 25.8378C69.8695 22.7962 73.196 21.2753 76.3735 21.2753C78.0284 21.2753 79.5841 22.7962 81.0405 25.8378C82.5134 28.9114 83.2498 32.2092 83.2498 35.7311C83.2498 41.174 82.0996 45.3682 79.7992 48.3138L76.721 52.2519C75.6122 53.5966 74.4703 54.9253 73.2953 56.238L69.7206 60.032C65.699 64.0662 62.5877 66.0832 60.3866 66.0832C58.2021 66.0832 56.6133 65.555 55.6204 64.4984C54.6274 63.4418 54.1309 61.953 54.1309 60.032C54.1309 57.4386 55.2314 55.1974 57.4325 53.3084Z" fill="#23242A"/>
<path d="M124.125 29.2476C124.654 29.2476 124.919 30.1121 124.919 31.841C124.919 34.8186 123.843 38.6766 121.692 43.4152L120.277 46.2006C115.99 54.4931 111.952 60.016 108.162 62.7695C105.812 64.4664 104.124 64.3863 103.098 62.5293C102.254 60.9605 101.584 58.4312 101.088 54.9413L100.492 50.7631L95.2042 57.0544L92.1508 60.4162C88.5099 64.2583 85.7793 66.1793 83.9588 66.1793C81.6253 66.1793 79.6807 64.4344 78.1251 60.9445C76.6356 57.6467 75.8909 53.8207 75.8909 49.4664C75.8909 45.1761 76.7763 41.3501 78.5471 37.9883C81.0792 33.1857 85.0759 28.7833 90.5372 24.7812C95.7007 21.0352 99.8712 19.1622 103.049 19.1622C104.124 19.1622 104.662 20.1868 104.662 22.2359C104.662 23.6446 104.522 24.7012 104.24 25.4056C103.959 26.1099 103.38 26.8303 102.503 27.5667L99.3747 30.1601C94.7408 33.9061 91.3482 37.7962 89.1967 41.8303C88.5844 42.9509 88.2782 44.0395 88.2782 45.0961C88.2782 46.1526 88.7168 46.6809 89.5939 46.6809C90.4545 46.6809 92.457 44.8879 95.6014 41.302L97.6618 38.9488C100.856 35.2348 103.529 33.3778 105.68 33.3778C107.501 33.3778 108.709 34.9306 109.304 38.0363C109.453 38.8687 109.594 39.7172 109.726 40.5816C109.859 41.4141 109.991 42.1665 110.124 42.8388C110.422 44.4077 110.686 45.1921 110.918 45.1921C111.166 45.1921 111.514 44.968 111.961 44.5197C112.407 44.0395 112.896 43.4472 113.425 42.7428C113.971 42.0064 114.534 41.206 115.113 40.3415L118.117 35.683C120.782 31.3927 122.784 29.2476 124.125 29.2476Z" fill="#23242A"/>
<path d="M152.786 34.3383C152.786 35.8431 151.768 38.7567 149.732 43.079C147.647 47.4653 145.603 51.0352 143.601 53.7887C139.728 59.3597 135.433 63.1697 130.717 65.2188C128.93 66.0192 127.233 66.4194 125.628 66.4194C124.039 66.4194 122.715 66.1473 121.656 65.603C120.613 65.0907 119.67 64.4023 118.826 63.5379C117.999 62.6414 117.279 61.6169 116.666 60.4642C116.054 59.3116 115.541 58.095 115.127 56.8143C114.316 54.317 113.911 52.0117 113.911 49.8986C113.911 47.7855 114.035 45.9285 114.283 44.3276C114.515 42.7268 114.846 41.206 115.276 39.7652C116.782 34.5144 119.811 29.8719 124.362 25.8378C127.953 22.6041 131.379 20.5069 134.639 19.5464C136.046 19.1302 137.047 18.9221 137.643 18.9221C138.239 18.9221 138.735 19.0502 139.132 19.3063C139.546 19.5304 139.902 19.8506 140.2 20.2668C140.862 21.1953 141.193 22.46 141.193 24.0608C141.193 25.6617 140.978 27.1825 140.547 28.6233C140.117 30.032 139.571 31.2166 138.909 32.1772C137.618 34.0341 136.178 34.9626 134.589 34.9626C132.421 34.9626 130.634 34.4184 129.227 33.3298C128.251 34.0021 127.424 35.2348 126.745 37.0277C126.182 38.5005 125.901 39.8292 125.901 41.0139C125.901 42.1665 126.033 43.3031 126.298 44.4237C126.579 45.5123 126.968 46.4888 127.465 47.3533C128.557 49.2102 129.873 50.1387 131.412 50.1387C134.987 50.1387 139.149 46.4728 143.899 39.1409L146.158 35.7311C148.541 32.2092 150.237 30.4482 151.247 30.4482C152.273 30.4482 152.786 31.7449 152.786 34.3383Z" fill="#23242A"/>
<path d="M179.808 30.016C180.603 30.016 181 30.8805 181 32.6094C181 33.762 180.793 35.2188 180.379 36.9797C179.982 38.7086 179.403 40.3415 178.642 41.8783C177.88 43.3831 177.003 44.952 176.01 46.5848C175.034 48.2177 173.884 49.9306 172.56 51.7236C171.252 53.5165 169.804 55.2935 168.215 57.0544C166.627 58.8154 164.939 60.4002 163.151 61.809C159.196 64.9466 155.365 66.5155 151.658 66.5155C148.828 66.5155 146.354 65.0907 144.235 62.2412C142.018 59.2636 140.909 55.6457 140.909 51.3874C140.909 44.6958 142.771 38.3404 146.494 32.3212C149.705 27.1345 153.486 23.1163 157.839 20.2668C160.487 18.5379 162.729 17.6734 164.566 17.6734C166.056 17.6734 167.314 18.3778 168.34 19.7866C169.432 21.3234 169.978 23.3885 169.978 25.9819C169.978 30.048 168.315 34.5464 164.988 39.4771C164.459 40.2775 163.979 40.9498 163.549 41.4941L162.655 42.6467C161 44.8879 158.484 47.4013 155.108 50.1868C156.151 51.2433 157.119 51.7716 158.013 51.7716C158.923 51.7716 159.734 51.5635 160.445 51.1473C161.174 50.7311 161.993 50.1387 162.903 49.3703C163.813 48.6019 164.781 47.6894 165.808 46.6329C166.85 45.5443 167.901 44.3597 168.96 43.079C171.327 40.2295 173.379 37.3159 175.117 34.3383C176.027 32.7054 177.185 31.4088 178.592 30.4482C179.055 30.1601 179.461 30.016 179.808 30.016ZM152.427 43.5112L153.793 42.1665C154.239 41.7182 154.637 41.302 154.984 40.9178C158.327 37.2038 160.23 34.9146 160.694 34.0502C161.157 33.1857 161.389 32.5934 161.389 32.2732C161.389 31.921 161.339 31.5208 161.24 31.0726C161.141 30.6243 161.008 30.2241 160.843 29.8719C160.445 28.9755 160.023 28.5272 159.577 28.5272C159.13 28.5272 158.633 28.6873 158.087 29.0075C157.558 29.3276 157.02 29.7759 156.474 30.3522C155.927 30.8965 155.398 31.5688 154.885 32.3693C154.388 33.1377 153.95 33.9701 153.569 34.8666C152.692 36.8837 152.253 38.6286 152.253 40.1014C152.253 41.5742 152.311 42.7108 152.427 43.5112Z" fill="#23242A"/>
</g>
</svg>
