<svg width="1912" height="1141" viewBox="0 0 1912 1141" fill="none" xmlns="http://www.w3.org/2000/svg">
<path d="M425.341 215.536C408.034 215.536 395.971 196.458 389.153 158.303C363.979 158.303 336.357 172.51 306.288 200.923C287.582 218.783 274.994 235.222 268.526 250.241C262.058 265.259 258.561 277.03 258.037 285.554C257.687 294.078 259.523 301.385 263.544 307.473C267.565 313.156 273.159 318.636 280.327 323.912C287.669 329.189 296.148 334.466 305.763 339.743C356.112 366.938 388.017 385.813 401.478 396.367C428.226 417.068 448.243 439.798 461.529 464.559C474.116 489.319 480.41 523.009 480.41 565.629C480.41 600.943 475.69 630.777 466.249 655.131C456.984 679.486 444.659 701.202 429.275 720.279C413.89 739.357 396.67 756.405 377.615 771.423C358.734 786.036 338.717 798.619 317.564 809.172C296.585 819.726 275.869 828.453 255.414 835.353C215.38 848.342 181.203 854.837 152.882 854.837C101.309 854.837 61.5372 840.427 33.5658 811.608C23.0765 800.648 14.5102 773.25 7.86697 729.412C2.62232 693.286 0 663.655 0 640.519C0 616.976 0.874108 603.987 2.62232 601.552C4.37054 599.116 7.95439 599.116 13.3739 601.552C18.7933 603.581 25.8736 607.234 34.6147 612.511L66.0826 631.995C114.858 660.408 166.43 674.615 220.8 674.615C260.834 674.615 294.749 666.294 322.546 649.652C338.979 639.504 347.72 628.139 348.769 615.555C349.469 604.596 336.532 590.998 309.959 574.762C297.896 567.05 283.91 558.932 268.002 550.408C190.905 506.976 144.403 478.968 128.494 466.385C112.585 453.802 102.183 442.64 97.2883 432.898C92.5681 423.156 88.6346 412.4 85.4878 400.629C79.7187 377.492 76.8341 355.573 76.8341 334.872C76.8341 313.765 77.2712 297.529 78.1453 286.163C79.1942 274.798 80.5928 264.244 82.341 254.503C86.0123 234.613 90.645 221.015 96.2393 213.709C141.168 155.259 207.164 103.912 294.225 59.6681C371.671 19.8894 435.393 0 485.392 0C495.532 0 503.137 4.05905 508.207 12.1772C516.948 27.1957 520.794 43.2289 519.745 60.2769C518.696 77.325 516.423 93.1553 512.927 107.768C509.605 121.975 505.409 134.964 500.34 146.735C495.27 158.1 489.588 168.248 483.294 177.178C477.176 185.702 470.795 192.805 464.152 198.488C450.865 209.853 437.928 215.536 425.341 215.536Z" fill="#FF4242"/>
<path d="M606.691 675.832C612.46 670.15 620.502 661.22 630.816 649.043C693.927 573.95 728.541 532.548 734.66 524.836L745.674 510.832C757.037 493.784 762.282 480.389 761.408 470.647C759.485 449.946 754.677 441.625 746.985 445.684C739.293 449.337 731.251 454.411 722.86 460.906C714.643 467.4 705.902 475.315 696.636 484.651C677.231 503.323 660.186 521.994 645.501 540.666C594.103 609.264 563.16 650.869 552.671 665.482C545.153 704.855 538.423 744.025 532.479 782.991L500.749 991.221C490.784 1055.76 480.732 1099.39 470.592 1122.13C465.172 1134.71 459.141 1141 452.498 1141C436.065 1141 423.128 1127.61 413.687 1100.82C404.247 1074.43 399.527 1040.74 399.527 999.745C399.527 959.154 401.8 918.97 406.345 879.191C410.89 839.818 417.184 799.837 425.226 759.246C441.484 677.253 463.249 600.74 490.522 529.706C507.13 426.201 534.751 325.739 573.387 228.322C596.988 169.06 618.928 127.251 639.207 102.897C649.347 90.7199 658.001 84.6313 665.168 84.6313C672.336 84.6313 677.756 88.4874 681.427 96.1996C685.098 103.506 686.934 112.842 686.934 124.207C686.934 135.166 685.448 149.17 682.476 166.218C679.504 183.266 675.483 202.344 670.413 223.451C665.343 244.558 659.399 267.086 652.581 291.034L630.816 364.706C629.068 370.795 628.194 376.274 628.194 381.145C628.194 388.857 630.204 392.713 634.225 392.713C638.77 392.713 647.162 386.016 659.399 372.621L701.357 327.566C738.069 289.005 773.208 269.724 806.774 269.724C824.256 269.724 840.689 289.005 856.074 327.566C871.633 366.533 879.412 408.341 879.412 452.99C879.412 521.994 867.262 575.168 842.962 612.511L810.445 662.438C798.732 679.486 786.669 696.331 774.257 712.973L736.496 761.073C694.014 812.217 661.148 837.789 637.896 837.789C614.82 837.789 598.037 831.091 587.548 817.696C577.058 804.301 571.814 785.427 571.814 761.073C571.814 728.194 583.439 699.781 606.691 675.832Z" fill="#FF4242"/>
<path d="M1311.19 370.795C1316.79 370.795 1319.59 381.754 1319.59 403.673C1319.59 441.422 1308.22 490.334 1285.5 550.408L1270.55 585.721C1225.27 690.851 1182.61 760.87 1142.58 795.777C1117.75 817.29 1099.92 816.276 1089.08 792.733C1080.17 772.844 1073.09 740.777 1067.84 696.534L1061.55 643.563L1005.69 723.323L973.438 765.943C934.978 814.652 906.132 839.006 886.902 839.006C862.252 839.006 841.71 816.885 825.277 772.641C809.543 730.833 801.676 682.327 801.676 627.124C801.676 572.732 811.029 524.227 829.735 481.607C856.483 420.721 898.702 364.909 956.393 314.171C1010.94 266.68 1054.99 242.934 1088.56 242.934C1099.92 242.934 1105.6 255.923 1105.6 281.901C1105.6 299.761 1104.12 313.156 1101.15 322.086C1098.17 331.016 1092.05 340.149 1082.79 349.484L1049.75 382.363C1000.8 429.854 964.96 479.171 942.233 530.315C935.764 544.522 932.53 558.323 932.53 571.718C932.53 585.113 937.163 591.81 946.429 591.81C955.519 591.81 976.673 569.079 1009.89 523.618L1031.65 493.784C1065.39 446.699 1093.63 423.156 1116.36 423.156C1135.59 423.156 1148.35 442.843 1154.64 482.216C1156.21 492.769 1157.7 503.526 1159.1 514.485C1160.5 525.039 1161.9 534.577 1163.29 543.101C1166.44 562.991 1169.24 572.935 1171.69 572.935C1174.31 572.935 1177.98 570.094 1182.7 564.411C1187.42 558.323 1192.58 550.814 1198.17 541.884C1203.94 532.548 1209.88 522.4 1216 511.441L1247.73 452.382C1275.88 397.99 1297.03 370.795 1311.19 370.795Z" fill="#FF4242"/>
<path d="M1613.96 435.333C1613.96 454.411 1603.21 491.348 1581.7 546.146C1559.67 601.755 1538.08 647.013 1516.93 681.921C1476.02 752.549 1430.66 800.851 1380.83 826.829C1361.95 836.977 1344.03 842.051 1327.07 842.051C1310.29 842.051 1296.31 838.6 1285.12 831.7C1274.1 825.206 1264.14 816.479 1255.22 805.519C1246.48 794.154 1238.88 781.165 1232.41 766.552C1225.94 751.94 1220.52 736.515 1216.15 720.279C1207.58 688.618 1203.3 659.393 1203.3 632.604C1203.3 605.814 1204.61 582.271 1207.23 561.976C1209.68 541.681 1213.18 522.4 1217.72 504.134C1233.63 437.566 1265.62 378.71 1313.7 327.566C1351.64 286.569 1387.83 259.982 1422.27 247.805C1437.12 242.528 1447.7 239.89 1454 239.89C1460.29 239.89 1465.53 241.514 1469.73 244.761C1474.1 247.602 1477.86 251.661 1481.01 256.938C1488 268.709 1491.49 284.743 1491.49 305.038C1491.49 325.333 1489.22 344.614 1484.68 362.879C1480.13 380.739 1474.36 395.758 1467.37 407.935C1453.73 431.477 1438.52 443.249 1421.74 443.249C1398.84 443.249 1379.96 436.348 1365.1 422.547C1354.78 431.071 1346.04 446.699 1338.88 469.43C1332.93 488.101 1329.96 504.946 1329.96 519.965C1329.96 534.577 1331.36 548.987 1334.16 563.194C1337.13 576.994 1341.24 589.375 1346.48 600.334C1358.02 623.877 1371.92 635.648 1388.17 635.648C1425.94 635.648 1469.9 589.172 1520.08 496.219L1543.94 452.99C1569.12 408.341 1587.03 386.016 1597.7 386.016C1608.54 386.016 1613.96 402.455 1613.96 435.333Z" fill="#FF4242"/>
<path d="M1899.41 380.536C1907.8 380.536 1912 391.496 1912 413.415C1912 428.027 1909.81 446.496 1905.44 468.821C1901.25 490.74 1895.13 511.441 1887.09 530.924C1879.05 550.002 1869.78 569.891 1859.29 590.592C1848.98 611.293 1836.83 633.009 1822.84 655.74C1809.03 678.471 1793.73 700.999 1776.95 723.323C1760.17 745.648 1742.34 765.74 1723.45 783.6C1681.67 823.379 1641.2 843.268 1602.04 843.268C1572.15 843.268 1546.01 825.206 1523.63 789.08C1500.21 751.331 1488.49 705.464 1488.49 651.478C1488.49 566.644 1508.16 486.072 1547.5 409.761C1581.41 344.005 1621.36 293.064 1667.34 256.938C1695.31 235.019 1719 224.06 1738.4 224.06C1754.14 224.06 1767.42 232.99 1778.26 250.85C1789.8 270.333 1795.57 296.514 1795.57 329.392C1795.57 380.942 1778 437.972 1742.86 500.481C1737.27 510.629 1732.2 519.153 1727.65 526.053L1718.21 540.666C1700.73 569.079 1674.16 600.943 1638.49 636.257C1649.51 649.652 1659.73 656.349 1669.17 656.349C1678.79 656.349 1687.35 653.711 1694.87 648.434C1702.56 643.157 1711.22 635.648 1720.83 625.906C1730.45 616.164 1740.67 604.596 1751.51 591.201C1762.53 577.4 1773.63 562.382 1784.82 546.146C1809.82 510.02 1831.49 473.083 1849.85 435.333C1859.47 414.632 1871.7 398.193 1886.56 386.016C1891.46 382.363 1895.74 380.536 1899.41 380.536ZM1610.17 551.625L1624.59 534.577C1629.31 528.895 1633.51 523.618 1637.18 518.747C1672.49 471.662 1692.6 442.64 1697.49 431.68C1702.39 420.721 1704.84 413.212 1704.84 409.153C1704.84 404.688 1704.31 399.614 1703.26 393.931C1702.21 388.248 1700.82 383.175 1699.07 378.71C1694.87 367.344 1690.41 361.662 1685.69 361.662C1680.97 361.662 1675.73 363.691 1669.96 367.75C1664.37 371.809 1658.68 377.492 1652.91 384.798C1647.15 391.699 1641.55 400.223 1636.13 410.37C1630.89 420.112 1626.25 430.666 1622.23 442.031C1612.97 467.603 1608.33 489.725 1608.33 508.396C1608.33 527.068 1608.95 541.478 1610.17 551.625Z" fill="#FF4242"/>
</svg>
